<svg xmlns="http://www.w3.org/2000/svg" width="180" height="54" viewBox="0 0 180 54">
  <g fill="none" fill-rule="evenodd">
    <path fill="#2D2727" d="M0,7.49427951 C0,3.35530323 3.35601915,0 7.50520974,0 L172.49479,0 C176.639803,0 180,3.35753913 180,7.49427951 L180,46.5057205 C180,50.6446968 176.643981,54 172.49479,54 L7.50520974,54 C3.36019686,54 0,50.6424609 0,46.5057205 L0,7.49427951 Z"/>
    <g fill="#FFFFFE" transform="translate(16.886 8.28)">
      <path d="M23.1383201 18.437189C23.0997621 14.1459014 26.6470932 12.0581759 26.8093025 11.9596481 24.8003005 9.02644712 21.686414 8.6256784 20.5921661 8.59505488 17.9768736 8.31944317 15.4400267 10.1621804 14.1077832 10.1621804 12.748948 10.1621804 10.6960697 8.62168403 8.48630054 8.66695359 5.64231962 8.71089169 2.97916216 10.3605676 1.51927854 12.9222919-1.49355959 18.1455998.753437959 25.8214525 3.63996558 30.0435044 5.08389419 32.1112579 6.77113673 34.4200053 8.97824675 34.3387864 11.1388213 34.2482473 11.945879 32.9580649 14.5545235 32.9580649 17.1379059 32.9580649 17.895769 34.3387864 20.1480849 34.2868596 22.46688 34.2482473 23.9267636 32.2097858 25.320168 30.1233918 26.9887964 27.752066 27.6589069 25.4180209 27.6854986 25.2981897 27.6309856 25.2808808 23.1821964 23.5806095 23.1383201 18.437189M18.9309911 5.7554558C20.0951266 4.30347452 20.8925528 2.32808919 20.6711937.323478261 18.9843306.397870714 16.8747517 1.48453191 15.6612771 2.90595914 14.5864853 4.15734648 13.6263735 6.2084527 13.8744024 8.13734274 15.7692897 8.27815703 17.7148495 7.18485365 18.9309911 5.7554558M49.3608002 26.6311899L47.8590549 22.000461C47.7002036 21.5259246 47.4025243 20.4115639 46.9620124 18.6573788L46.9099519 18.6573788C46.735082 19.4131713 46.4534213 20.5261991 46.0663047 22.000461L44.5912571 26.6311899 49.3608002 26.6311899 49.3608002 26.6311899zM54.5535017 34.0278261L51.5219785 34.0278261 49.861382 28.8172564 44.0906754 28.8172564 42.508837 34.0278261 39.5574069 34.0278261 45.276053 16.2886957 48.8081579 16.2886957 54.5535017 34.0278261 54.5535017 34.0278261zM66.2444507 27.5879538C66.2444507 26.3431974 65.9651674 25.3170063 65.4039408 24.5093807 64.7908474 23.6684371 63.9689565 23.2459663 62.9356082 23.2459663 62.2360699 23.2459663 61.6003679 23.4805242 61.0324918 23.9443092 60.4632857 24.409427 60.090908 25.018478 59.9166884 25.7741278 59.8289136 26.124632 59.7850262 26.4138313 59.7850262 26.640393L59.7850262 28.772738C59.7850262 29.7029735 60.0696292 30.487943 60.6388353 31.1276465 61.2080413 31.7686827 61.9474772 32.0885345 62.8571429 32.0885345 63.9250691 32.0885345 64.7575994 31.6753926 65.3520739 30.8517744 65.9465485 30.0268234 66.2444507 28.9393274 66.2444507 27.5879538L66.2444507 27.5879538zM69.1330383 27.484002C69.1330383 29.6589939 68.5465433 31.378197 67.3735533 32.6402787 66.322916 33.763758 65.0195938 34.3248313 63.4609268 34.3248313 61.7812371 34.3248313 60.5736691 33.7197784 59.838223 32.5083399L59.7850262 32.5083399 59.7850262 39.2452174 56.9496355 39.2452174 56.9496355 25.4569415C56.9496355 24.0895752 56.9137276 22.6862257 56.8445717 21.2468928L59.3381729 21.2468928 59.4964334 23.2739533 59.5496303 23.2739533C60.4938739 21.7466612 61.9301882 20.9843478 63.8545833 20.9843478 65.3613834 20.9843478 66.6168285 21.5800717 67.6235784 22.7728522 68.6303283 23.9669654 69.1330383 25.5369044 69.1330383 27.484002L69.1330383 27.484002zM80.9281268 27.5879538C80.9281268 26.3431974 80.6475136 25.3170063 80.087617 24.5093807 79.4745236 23.6684371 78.6526326 23.2459663 77.6192843 23.2459663 76.9184161 23.2459663 76.284044 23.4805242 75.714838 23.9443092 75.1469619 24.409427 74.775914 25.018478 74.6003645 25.7741278 74.5139196 26.124632 74.4687023 26.4138313 74.4687023 26.640393L74.4687023 28.772738C74.4687023 29.7029735 74.7533054 30.487943 75.3198515 31.1276465 75.8890576 31.7686827 76.6298234 32.0885345 77.540819 32.0885345 78.6087452 32.0885345 79.4399456 31.6753926 80.0344201 30.8517744 80.6302246 30.0268234 80.9281268 28.9393274 80.9281268 27.5879538L80.9281268 27.5879538zM83.8167144 27.484002C83.8167144 29.6589939 83.2302194 31.378197 82.0558995 32.6402787 81.0065921 33.763758 79.70194 34.3248313 78.1446029 34.3248313 76.4635833 34.3248313 75.2560154 33.7197784 74.5218992 32.5083399L74.4687023 32.5083399 74.4687023 39.2452174 71.6333116 39.2452174 71.6333116 25.4569415C71.6333116 24.0895752 71.5974037 22.6862257 71.5282479 21.2468928L74.0231789 21.2468928 74.1801096 23.2739533 74.2333064 23.2739533C75.17755 21.7466612 76.6112045 20.9843478 78.5382594 20.9843478 80.0423997 20.9843478 81.3005046 21.5800717 82.3072545 22.7728522 83.3126745 23.9669654 83.8167144 25.5369044 83.8167144 27.484002L83.8167144 27.484002zM100.166623 29.1059626C100.166623 30.6132639 99.6461147 31.840695 98.6011243 32.7882559 97.4528269 33.8251086 95.8542167 34.3408696 93.7999961 34.3408696 91.9047093 34.3408696 90.3829172 33.9730401 89.2319708 33.2360483L89.8862487 30.8678126C91.1259332 31.6221297 92.4861425 31.9992882 93.9682011 31.9992882 95.0317338 31.9992882 95.8595145 31.7580667 96.4541922 31.2742909 97.0475455 30.7918478 97.3415732 30.1454808 97.3415732 29.3365224 97.3415732 28.6168559 97.099199 28.0104703 96.6091528 27.5186983 96.1230799 27.0269262 95.3111926 26.5698047 94.1787885 26.1473339 91.0928219 24.989204 89.5498386 23.292657 89.5498386 21.0603583 89.5498386 19.6037001 90.0915384 18.4082542 91.1722889 17.476686 92.2503905 16.5451178 93.6887423 16.08 95.4873443 16.08 97.0912523 16.08 98.4236482 16.3598703 99.4858564 16.9209436L98.779925 19.2372033C97.7865881 18.6934554 96.6634552 18.4215814 95.4065529 18.4215814 94.413216 18.4215814 93.6370888 18.666801 93.0808202 19.1585731 92.6106407 19.5970365 92.3748887 20.1314555 92.3748887 20.7644954 92.3748887 21.4655039 92.6437519 22.0452352 93.1854516 22.4996912 93.6556311 22.922162 94.5099008 23.3779508 95.7482608 23.8697229 97.2647551 24.4841048 98.3786169 25.2024385 99.0951439 26.0260567 99.8103464 26.8510077 100.166623 27.8785315 100.166623 29.1059626M109.643322 23.3929307L106.502563 23.3929307 106.502563 29.6185437C106.502563 31.2020061 107.055871 31.9930692 108.165161 31.9930692 108.674365 31.9930692 109.098033 31.9489728 109.432156 31.8621162L109.509673 34.0255133C108.948346 34.2353054 108.210601 34.3408696 107.293767 34.3408696 106.16844 34.3408696 105.289027 33.997452 104.654193 33.3132893 104.023368 32.6264541 103.703946 31.4746022 103.703946 29.8563971L103.703946 23.3929307 101.832856 23.3929307 101.832856 21.2549224 103.703946 21.2549224 103.703946 18.907122 106.502563 18.0626087 106.502563 21.2549224 109.643322 21.2549224 109.643322 23.3929307M120.760812 27.6359223C120.760812 26.4563854 120.508164 25.4436381 119.99888 24.5976806 119.404493 23.5755931 118.5548 23.0658837 117.453788 23.0658837 116.314215 23.0658837 115.448564 23.5755931 114.854178 24.5976806 114.344893 25.4436381 114.093576 26.4723972 114.093576 27.6892951 114.093576 28.8701664 114.344893 29.8829136 114.854178 30.7275368 115.467181 31.74829 116.324852 32.2593337 117.428523 32.2593337 118.510919 32.2593337 119.360612 31.7402841 119.973615 30.7008505 120.497526 29.8388811 120.760812 28.8154593 120.760812 27.6359223L120.760812 27.6359223zM123.702161 27.5438544C123.702161 29.5119732 123.142347 31.1278322 122.02272 32.3914312 120.848573 33.6910568 119.290137 34.3408696 117.34741 34.3408696 115.475159 34.3408696 113.984538 33.7177431 112.872889 32.4701559 111.76124 31.2239031 111.205415 29.6507423 111.205415 27.7546766 111.205415 25.770546 111.777197 24.1453468 112.924748 22.8817478 114.069641 21.6168145 115.61478 20.9843478 117.557507 20.9843478 119.431088 20.9843478 120.936335 21.6074743 122.074579 22.8550615 123.159634 24.0666221 123.702161 25.6291083 123.702161 27.5438544L123.702161 27.5438544zM132.970581 23.744083C132.688157 23.6921382 132.388332 23.6668318 132.071107 23.6668318 131.06723 23.6668318 130.290899 24.0437647 129.74479 24.7976306 129.268283 25.4635899 129.031368 26.3053624 129.031368 27.3216162L129.031368 34.0278261 126.179019 34.0278261 126.204451 25.2717936C126.204451 23.7973598 126.168311 22.4561178 126.09737 21.2467358L128.584308 21.2467358 128.688711 23.6921382 128.766344 23.6921382C129.067507 22.8516976 129.544014 22.175083 130.194526 21.668954 130.828977 21.2121059 131.516967 20.9843478 132.257159 20.9843478 132.520844 20.9843478 132.759097 21.0029947 132.970581 21.0362926L132.970581 23.744083M142.969894 26.342464C142.988527 25.4975715 142.803532 24.7689853 142.418903 24.1513581 141.927803 23.3599398 141.173185 22.9642306 140.157711 22.9642306 139.230077 22.9642306 138.475459 23.3505818 137.899181 24.1259579 137.425382 24.7422482 137.144563 25.4815292 137.059386 26.342464L142.969894 26.342464 142.969894 26.342464zM145.675605 27.081745C145.675605 27.5924238 145.642333 28.0228912 145.571795 28.3744842L137.059386 28.3744842C137.092658 29.641823 137.503905 30.6110432 138.293126 31.2794708 139.010479 31.8770452 139.939444 32.1765008 141.07736 32.1765008 142.337719 32.1765008 143.487613 31.9732988 144.521719 31.5682316L144.966238 33.5481143C143.757784 34.0761722 142.331064 34.3408696 140.684746 34.3408696 138.704373 34.3408696 137.149887 33.7553269 136.018625 32.5842416 134.891356 31.4144932 134.324395 29.8436882 134.324395 27.8731634 134.324395 25.9373969 134.848768 24.3264862 135.902837 23.0431051 137.004819 21.6701546 138.494091 20.9843478 140.367993 20.9843478 142.208622 20.9843478 143.60207 21.6701546 144.548337 23.0431051 145.298962 24.133979 145.675605 25.4815292 145.675605 27.081745L145.675605 27.081745zM46.931762 5.41816192C46.931762 4.399577 46.6616657 3.61861739 46.1201362 3.07394812 45.5799438 2.53061383 44.791049 2.25827919 43.7534517 2.25827919 43.3122054 2.25827919 42.9351404 2.28898359 42.6249309 2.3490574L42.6249309 8.87574379C42.7974181 8.90244326 43.112976 8.91445803 43.5716047 8.91445803 44.6439669 8.91445803 45.4716379 8.61675889 46.0559549 8.02136063 46.6389349 7.42596236 46.931762 6.55822946 46.931762 5.41816192L46.931762 5.41816192zM48.4092684 5.37944769C48.4092684 6.95071172 47.9386057 8.13349842 46.9959432 8.92780776 46.1214733 9.66070832 44.8819724 10.0278261 43.2734292 10.0278261 42.4778488 10.0278261 41.7945856 9.99311677 41.2236397 9.92503311L41.2236397 1.33848232C41.9684099 1.21833469 42.7706759 1.15826087 43.6371231 1.15826087 45.1667768 1.15826087 46.3220398 1.49066932 47.1002378 2.15548622 47.9720335 2.90574143 48.4092684 3.98039526 48.4092684 5.37944769L48.4092684 5.37944769zM54.7734846 6.83185035C54.7734846 6.25172057 54.648418 5.75312976 54.3982846 5.33741464 54.1069059 4.83347702 53.6891299 4.58217657 53.1476178 4.58217657 52.5874787 4.58217657 52.1617198 4.83347702 51.8690106 5.33741464 51.6202077 5.75312976 51.495141 6.25974079 51.495141 6.85724773 51.495141 7.43871422 51.6202077 7.93730502 51.8690106 8.35435684 52.1710333 8.85562105 52.5914702 9.10692151 53.1343128 9.10692151 53.667842 9.10692151 54.0842874 8.85161094 54.3863101 8.3409898 54.6444265 7.91591775 54.7734846 7.41331683 54.7734846 6.83185035L54.7734846 6.83185035zM56.2197344 6.78640239C56.2197344 7.7555132 55.9443216 8.54951571 55.3934961 9.17242004 54.8160605 9.81270152 54.051025 10.1321739 53.0957284 10.1321739 52.1750248 10.1321739 51.4419212 9.82606857 50.8950871 9.21118447 50.3495835 8.59763707 50.0755012 7.82368513 50.0755012 6.89066535 50.0755012 5.91353431 50.356236 5.11418498 50.9203665 4.49128065 51.4844971 3.86837633 52.2428801 3.55826087 53.1981767 3.55826087 54.1202108 3.55826087 54.8586364 3.86570292 55.4187755 4.47925031 55.9509741 5.07542055 56.2197344 5.84536238 56.2197344 6.78640239L56.2197344 6.78640239zM66.6336891 3.6626087L64.6767837 9.92347826 63.4044635 9.92347826 62.5925135 7.20476804C62.3868726 6.52608659 62.2197065 5.85271771 62.0896883 5.18200513L62.0658075 5.18200513C61.9450763 5.86998358 61.7779102 6.5446806 61.5629823 7.20476804L60.7006171 9.92347826 59.413703 9.92347826 57.5735486 3.6626087 59.0024212 3.6626087 59.7095606 6.63765066C59.8807069 7.34289498 60.0226655 8.01227943 60.1354363 8.64846028L60.1593172 8.64846028C60.262801 8.12517164 60.4339473 7.45844349 60.6754095 6.6509321L61.5629823 3.6626087 62.6946706 3.6626087 63.5450953 6.5871812C63.7507362 7.30039438 63.9179024 7.9870447 64.0465938 8.64846028L64.0850685 8.64846028C64.1792653 8.00431056 64.3212239 7.31766025 64.5109442 6.5871812L65.2698255 3.6626087 66.6336891 3.6626087M73.9234574 9.92347826L72.5235719 9.92347826 72.5235719 6.35122988C72.5235719 5.25044816 72.101469 4.7000573 71.2545917 4.7000573 70.8391677 4.7000573 70.502554 4.85220862 70.2434148 5.1551882 69.9842757 5.45816779 69.8547062 5.81406957 69.8547062 6.22421661L69.8547062 9.92347826 68.4548207 9.92347826 68.4548207 5.47007528C68.4548207 4.92233053 68.4374557 4.32827885 68.4040614 3.6865972L69.6343044 3.6865972 69.699757 4.6616887 69.7384943 4.6616887C69.9014581 4.35870912 70.144568 4.10732868 70.4638167 3.90887043 70.843175 3.67468971 71.2679494 3.55826087 71.7327969 3.55826087 72.3205351 3.55826087 72.8094264 3.74613467 73.1981351 4.12320534 73.6816833 4.58495152 73.9234574 5.27294009 73.9234574 6.18849412L73.9234574 9.92347826"/>
      <polygon points="76.319 10.028 77.672 10.028 77.672 .845 76.319 .845"/>
      <path d="M84.4516115 6.83185035C84.4516115 6.25172057 84.3265177 5.75312976 84.077661 5.33741464 83.7862191 4.83347702 83.3670219 4.58217657 82.8267233 4.58217657 82.2651321 4.58217657 81.839281 4.83347702 81.5478391 5.33741464 81.2989824 5.75312976 81.1738886 6.25974079 81.1738886 6.85724773 81.1738886 7.43871422 81.2989824 7.93730502 81.5478391 8.35435684 81.8499273 8.85562105 82.2704553 9.10692151 82.8134155 9.10692151 83.3470602 9.10692151 83.762265 8.85161094 84.0643531 8.3409898 84.3238562 7.91591775 84.4516115 7.41331683 84.4516115 6.83185035L84.4516115 6.83185035zM85.8995053 6.78640239C85.8995053 7.7555132 85.6240329 8.54951571 85.073088 9.17242004 84.4955274 9.81270152 83.7289954 10.1321739 82.7748227 10.1321739 81.8525889 10.1321739 81.1193265 9.82606857 80.5737047 9.21118447 80.0280829 8.59763707 79.7552721 7.82368513 79.7552721 6.89066535 79.7552721 5.91353431 80.0360677 5.11418498 80.5989896 4.49128065 81.1632423 3.86837633 81.9231205 3.55826087 82.8759623 3.55826087 83.799527 3.55826087 84.5367817 3.86570292 85.0983729 4.47925031 85.6320176 5.07542055 85.8995053 5.84536238 85.8995053 6.78640239L85.8995053 6.78640239zM91.2343502 7.82368513L91.2343502 6.85190091C89.7104855 6.82516682 88.9485531 7.24890217 88.9485531 8.12177025 88.9485531 8.45059957 89.0355557 8.69655321 89.2135157 8.86096787 89.3914757 9.02538253 89.6182099 9.10692151 89.8884455 9.10692151 90.1916365 9.10692151 90.4750543 9.01067878 90.7321076 8.81551992 90.9931156 8.62169776 91.1526205 8.37307071 91.2119405 8.07097548 91.2264409 8.00146684 91.2343502 7.91859116 91.2343502 7.82368513L91.2343502 7.82368513zM92.6685759 9.98914652L91.4281289 9.98914652 91.3239893 9.26331595 91.2857609 9.26331595C90.8612934 9.84210902 90.2562294 10.1321739 89.470569 10.1321739 88.8839602 10.1321739 88.4107185 9.94236187 88.052162 9.56140106 87.7278794 9.21519458 87.5657381 8.78744912 87.5657381 8.27816468 87.5657381 7.50822285 87.8821114 6.92140955 88.5188127 6.51371466 89.1541957 6.10869318 90.0479503 5.9095242 91.1987582 5.91754442L91.1987582 5.80125113C91.1987582 4.97115759 90.7690178 4.55677918 89.9082188 4.55677918 89.2952455 4.55677918 88.7547744 4.71183691 88.289442 5.02328907L88.0086607 4.10229963C88.5847238 3.74005269 89.2978819 3.55826087 90.1402259 3.55826087 91.7642755 3.55826087 92.5789368 4.42711884 92.5789368 6.16483477L92.5789368 8.48535389C92.5789368 9.11627844 92.6092559 9.61754266 92.6685759 9.98914652L92.6685759 9.98914652zM99.2296451 7.34635291L99.2296451 6.30117137C99.2296451 6.12032571 99.2162226 5.97405349 99.19072 5.8623547 99.1115277 5.52725833 98.9410628 5.24535186 98.6820099 5.01796504 98.4202725 4.78924847 98.1048454 4.67621993 97.7410975 4.67621993 97.2162805 4.67621993 96.8055541 4.88233079 96.5035494 5.29455252 96.2042292 5.70810399 96.0525558 6.23601375 96.0525558 6.88094128 96.0525558 7.50060362 96.1961758 8.00324817 96.484758 8.39020469 96.7894472 8.80242642 97.2001736 9.00986703 97.7142527 9.00986703 98.1759843 9.00986703 98.5451011 8.83699985 98.8256299 8.493925 99.096763 8.17611534 99.2296451 7.79314807 99.2296451 7.34635291L99.2296451 7.34635291zM100.687321 9.98989093L99.439035 9.98989093 99.3746073 8.98327208 99.33434 8.98327208C98.9356938 9.74920663 98.2578611 10.1321739 97.3035263 10.1321739 96.53979 10.1321739 95.9062513 9.83564022 95.4029101 9.24257284 94.899569 8.64817571 94.6472273 7.87958165 94.6472273 6.93280143 94.6472273 5.91820409 94.9197026 5.09642014 95.4673378 4.47010907 95.9975238 3.88502017 96.6471694 3.59247572 97.4216437 3.59247572 98.2699413 3.59247572 98.8658972 3.87571194 99.2041424 4.44351412L99.2296451 4.44351412 99.2296451.845217391 100.637658.845217391 100.637658 8.30111161C100.637658 8.91146571 100.653765 9.4739489 100.687321 9.98989093L100.687321 9.98989093zM111.113997 6.83185035C111.113997 6.25172057 110.988903 5.75312976 110.740047 5.33741464 110.445943 4.83347702 110.030738 4.58217657 109.486447 4.58217657 108.928849 4.58217657 108.501667 4.83347702 108.207563 5.33741464 107.958706 5.75312976 107.833613 6.25974079 107.833613 6.85724773 107.833613 7.43871422 107.958706 7.93730502 108.207563 8.35435684 108.509651 8.85562105 108.930179 9.10692151 109.47447 9.10692151 110.006784 9.10692151 110.425981 8.85161094 110.726739 8.3409898 110.98358 7.91591775 111.113997 7.41331683 111.113997 6.83185035L111.113997 6.83185035zM112.559229 6.78640239C112.559229 7.7555132 112.283757 8.54951571 111.732812 9.17242004 111.155251 9.81270152 110.391381 10.1321739 109.434547 10.1321739 108.514974 10.1321739 107.781712 9.82606857 107.233429 9.21118447 106.687807 8.59763707 106.414996 7.82368513 106.414996 6.89066535 106.414996 5.91353431 106.695792 5.11418498 107.260044 4.49128065 107.822966 3.86837633 108.582844 3.55826087 109.539679 3.55826087 110.459251 3.55826087 111.200498 3.86570292 111.758097 4.47925031 112.291742 5.07542055 112.559229 5.84536238 112.559229 6.78640239L112.559229 6.78640239zM120.057277 9.92347826L118.658388 9.92347826 118.658388 6.35122988C118.658388 5.25044816 118.236183 4.7000573 117.387765 4.7000573 116.97224 4.7000573 116.635545 4.85220862 116.377679 5.1551882 116.119814 5.45816779 115.988877 5.81406957 115.988877 6.22421661L115.988877 9.92347826 114.587316 9.92347826 114.587316 5.47007528C114.587316 4.92233053 114.571283 4.32827885 114.537881 3.6865972L115.767085 3.6865972 115.832554 4.6616887 115.871301 4.6616887C116.03564 4.35870912 116.278809 4.10732868 116.596799 3.90887043 116.977585 3.67468971 117.401126 3.55826087 117.867422 3.55826087 118.455302 3.55826087 118.942976 3.74613467 119.331779 4.12320534 119.81678 4.58495152 120.057277 5.27294009 120.057277 6.18849412L120.057277 9.92347826M129.429836 4.6931677L127.880253 4.6931677 127.880253 7.72753623C127.880253 8.49871636 128.155287 8.88430642 128.701331 8.88430642 128.952215 8.88430642 129.16151 8.86310559 129.32653 8.81937888L129.364096 9.87412008C129.086379 9.97614907 128.721455 10.0278261 128.270667 10.0278261 127.715232 10.0278261 127.283227 9.86086957 126.971969 9.52695652 126.656685 9.19171843 126.502398 8.63122153 126.502398 7.84281573L126.502398 4.6931677 125.576673 4.6931677 125.576673 3.65300207 126.502398 3.65300207 126.502398 2.50815735 127.880253 2.0973913 127.880253 3.65300207 129.429836 3.65300207 129.429836 4.6931677M136.719604 10.0278261L135.333045 10.0278261 135.333045 6.44931928C135.333045 5.32102143 134.913637 4.75620487 134.076144 4.75620487 133.43314 4.75620487 132.993887 5.08334448 132.753091 5.73895897 132.712076 5.87649114 132.689584 6.04473437 132.689584 6.2423534L132.689584 10.0278261 131.304348 10.0278261 131.304348.845217391 132.689584.845217391 132.689584 4.63870166 132.714722 4.63870166C133.15133 3.94837031 133.777134 3.60387226 134.588166 3.60387226 135.162371 3.60387226 135.637347 3.79347971 136.014417 4.17402988 136.485424 4.6480485 136.719604 5.35306776 136.719604 6.28508184L136.719604 10.0278261M143.083478 6.19505753C143.094217 5.7799194 143.001588 5.41968664 142.81096 5.11703756 142.566633 4.72734339 142.194774 4.53316588 141.691354 4.53316588 141.232235 4.53316588 140.857691 4.72332592 140.571748 5.10498516 140.338161 5.40763425 140.199889 5.77188447 140.154245 6.19505753L143.083478 6.19505753 143.083478 6.19505753zM144.425931 6.55930775C144.425931 6.81106893 144.407136 7.02265546 144.373575 7.19540648L140.154245 7.19540648C140.17304 7.81945282 140.374408 8.29485293 140.765061 8.62428512 141.122154 8.91889927 141.583958 9.06620635 142.147788 9.06620635 142.772029 9.06620635 143.339886 8.96710886 143.854046 8.76757473L144.074208 9.74114058C143.474132 10.0009367 142.769344 10.1321739 141.950447 10.1321739 140.970457 10.1321739 140.199889 9.84425554 139.641428 9.26707963 139.080283 8.69124288 138.802395 7.91855031 138.802395 6.94900192 138.802395 5.99686255 139.061489 5.20408265 139.583703 4.57200138 140.128739 3.89572799 140.865745 3.55826087 141.796065 3.55826087 142.706248 3.55826087 143.397612 3.89572799 143.864785 4.57200138 144.23933 5.10900263 144.425931 5.77188447 144.425931 6.55930775L144.425931 6.55930775z"/>
    </g>
  </g>
</svg>
