<svg xmlns="http://www.w3.org/2000/svg" xmlns:xlink="http://www.w3.org/1999/xlink" width="64" height="56" viewBox="0 0 64 56">
  <defs>
    <linearGradient id="lexi-icon-a" x1="66.774%" x2="66.774%" y1="0%" y2="100%">
      <stop offset="0%" stop-color="#FEF2F4"/>
      <stop offset="100%" stop-color="#F4A0BE"/>
    </linearGradient>
    <filter id="lexi-icon-b" width="146.4%" height="145.6%" x="-24.4%" y="-29.1%" filterUnits="objectBoundingBox">
      <feOffset dy="-2" in="SourceAlpha" result="shadowOffsetOuter1"/>
      <feGaussianBlur in="shadowOffsetOuter1" result="shadowBlurOuter1" stdDeviation="2"/>
      <feColorMatrix in="shadowBlurOuter1" result="shadowMatrixOuter1" values="0 0 0 0 0.619074192   0 0 0 0 0.0187720374   0 0 0 0 0.253476639  0 0 0 0.195623868 0"/>
      <feMerge>
        <feMergeNode in="shadowMatrixOuter1"/>
        <feMergeNode in="SourceGraphic"/>
      </feMerge>
    </filter>
    <linearGradient id="lexi-icon-d" x1="50%" x2="50%" y1="50%" y2="0%">
      <stop offset="0%" stop-opacity="0"/>
      <stop offset="100%"/>
    </linearGradient>
    <polygon id="lexi-icon-c" points="0 30.865 0 .005 32.788 .005 32.788 30.865"/>
    <radialGradient id="lexi-icon-e" cy="57.516%" r="43.373%" fx="50%" fy="57.516%" gradientTransform="matrix(0 -1 1.45696 0 -.338 1.075)">
      <stop offset="0%" stop-color="#F4A1BE"/>
      <stop offset="100%" stop-color="#FAE7EE"/>
    </radialGradient>
  </defs>
  <g fill="none" fill-rule="evenodd">
    <path fill="url(#lexi-icon-a)" d="M37.7122245,50.3846416 L49.8128079,50.3846416 C57.6481777,50.3846416 64,44.0402605 64,36.2140699 L64,14.1709583 C64,6.3447677 57.6481777,0.000386652113 49.8128079,0.000386652113 L14.1871921,0.000386652113 C6.35182227,0.000386652113 -9.59556061e-16,6.3447677 0,14.1709583 L0,36.2140699 C9.59556061e-16,44.0402605 6.35182227,50.3846416 14.1871921,50.3846416 L26.2980817,50.3846416 L32,55.8950328 L37.7122245,50.3846416 Z"/>
    <g filter="url(#lexi-icon-b)" transform="translate(15.606 25.087)">
      <mask id="lexi-icon-f" fill="#fff">
        <use xlink:href="#lexi-icon-c"/>
      </mask>
      <use fill="url(#lexi-icon-d)" fill-rule="nonzero" xlink:href="#lexi-icon-c"/>
      <path fill="url(#lexi-icon-e)" fill-rule="nonzero" d="M16.3940887,30.8649401 L5.74976102,20.5781547 C2.12950864,16.6389505 0,13.1835646 0,9.25428199 C0,4.0744511 3.96736946,0.00458396508 9.01674877,0.00458396508 C11.8693202,0.00458396508 14.607133,1.36681222 16.3940887,3.51946921 C18.1810443,1.36681222 20.9188571,0.00458396508 23.7714286,0.00458396508 C28.8208079,0.00458396508 32.7881773,4.0744511 32.7881773,9.25428199 C32.7881773,13.1765989 30.6662123,16.6436076 27.057656,20.5781547 L16.3940887,30.8649401 Z" mask="url(#lexi-icon-f)"/>
    </g>
    <path fill="#CD356E" fill-rule="nonzero" d="M28.8472906,17.3195876 C28.8472906,16.8847993 29.2001697,16.5323336 29.635468,16.5323336 L34.364532,16.5323336 C34.7998303,16.5323336 35.1527094,16.8847993 35.1527094,17.3195876 C35.1527094,19.0587411 33.7411933,20.4686036 32,20.4686036 C30.2588067,20.4686036 28.8472906,19.0587411 28.8472906,17.3195876 Z M21.7536946,15.9025305 C20.4477996,15.9025305 19.3891626,14.8451336 19.3891626,13.5407685 C19.3891626,12.2364034 20.4477996,11.1790066 21.7536946,11.1790066 C23.0595896,11.1790066 24.1182266,12.2364034 24.1182266,13.5407685 C24.1182266,14.8451336 23.0595896,15.9025305 21.7536946,15.9025305 Z M42.2463054,15.9025305 C40.9404104,15.9025305 39.8817734,14.8451336 39.8817734,13.5407685 C39.8817734,12.2364034 40.9404104,11.1790066 42.2463054,11.1790066 C43.5522004,11.1790066 44.6108374,12.2364034 44.6108374,13.5407685 C44.6108374,14.8451336 43.5522004,15.9025305 42.2463054,15.9025305 Z"/>
  </g>
</svg>
